<?xml version="1.0" encoding="utf-8" standalone="no"?>
<!DOCTYPE svg PUBLIC "-//W3C//DTD SVG 1.1//EN"
  "http://www.w3.org/Graphics/SVG/1.1/DTD/svg11.dtd">
<!-- Created with matplotlib (https://matplotlib.org/) -->
<svg height="288pt" version="1.1" viewBox="0 0 432 288" width="432pt" xmlns="http://www.w3.org/2000/svg" xmlns:xlink="http://www.w3.org/1999/xlink">
 <defs>
  <style type="text/css">
*{stroke-linecap:butt;stroke-linejoin:round;}
  </style>
 </defs>
 <g id="figure_1">
  <g id="patch_1">
   <path d="M 0 288 
L 432 288 
L 432 0 
L 0 0 
z
" style="fill:#ffffff;"/>
  </g>
  <g id="axes_1">
   <g id="patch_2">
    <path d="M 54 252 
L 388.8 252 
L 388.8 34.56 
L 54 34.56 
z
" style="fill:#ffffff;"/>
   </g>
   <g id="matplotlib.axis_1">
    <g id="xtick_1">
     <g id="line2d_1">
      <defs>
       <path d="M 0 0 
L 0 3.5 
" id="m0b473c2dab" style="stroke:#000000;stroke-width:0.8;"/>
      </defs>
      <g>
       <use style="stroke:#000000;stroke-width:0.8;" x="68.0199" xlink:href="#m0b473c2dab" y="252"/>
      </g>
     </g>
     <g id="text_1">
      <!-- 0 -->
      <defs>
       <path d="M 31.78125 66.40625 
Q 24.171875 66.40625 20.328125 58.90625 
Q 16.5 51.421875 16.5 36.375 
Q 16.5 21.390625 20.328125 13.890625 
Q 24.171875 6.390625 31.78125 6.390625 
Q 39.453125 6.390625 43.28125 13.890625 
Q 47.125 21.390625 47.125 36.375 
Q 47.125 51.421875 43.28125 58.90625 
Q 39.453125 66.40625 31.78125 66.40625 
z
M 31.78125 74.21875 
Q 44.046875 74.21875 50.515625 64.515625 
Q 56.984375 54.828125 56.984375 36.375 
Q 56.984375 17.96875 50.515625 8.265625 
Q 44.046875 -1.421875 31.78125 -1.421875 
Q 19.53125 -1.421875 13.0625 8.265625 
Q 6.59375 17.96875 6.59375 36.375 
Q 6.59375 54.828125 13.0625 64.515625 
Q 19.53125 74.21875 31.78125 74.21875 
z
" id="DejaVuSans-48"/>
      </defs>
      <g transform="translate(64.83865 266.598437)scale(0.1 -0.1)">
       <use xlink:href="#DejaVuSans-48"/>
      </g>
     </g>
    </g>
    <g id="xtick_2">
     <g id="line2d_2">
      <g>
       <use style="stroke:#000000;stroke-width:0.8;" x="127.934001" xlink:href="#m0b473c2dab" y="252"/>
      </g>
     </g>
     <g id="text_2">
      <!-- 50 -->
      <defs>
       <path d="M 10.796875 72.90625 
L 49.515625 72.90625 
L 49.515625 64.59375 
L 19.828125 64.59375 
L 19.828125 46.734375 
Q 21.96875 47.46875 24.109375 47.828125 
Q 26.265625 48.1875 28.421875 48.1875 
Q 40.625 48.1875 47.75 41.5 
Q 54.890625 34.8125 54.890625 23.390625 
Q 54.890625 11.625 47.5625 5.09375 
Q 40.234375 -1.421875 26.90625 -1.421875 
Q 22.3125 -1.421875 17.546875 -0.640625 
Q 12.796875 0.140625 7.71875 1.703125 
L 7.71875 11.625 
Q 12.109375 9.234375 16.796875 8.0625 
Q 21.484375 6.890625 26.703125 6.890625 
Q 35.15625 6.890625 40.078125 11.328125 
Q 45.015625 15.765625 45.015625 23.390625 
Q 45.015625 31 40.078125 35.4375 
Q 35.15625 39.890625 26.703125 39.890625 
Q 22.75 39.890625 18.8125 39.015625 
Q 14.890625 38.140625 10.796875 36.28125 
z
" id="DejaVuSans-53"/>
      </defs>
      <g transform="translate(121.571501 266.598437)scale(0.1 -0.1)">
       <use xlink:href="#DejaVuSans-53"/>
       <use x="63.623047" xlink:href="#DejaVuSans-48"/>
      </g>
     </g>
    </g>
    <g id="xtick_3">
     <g id="line2d_3">
      <g>
       <use style="stroke:#000000;stroke-width:0.8;" x="187.848103" xlink:href="#m0b473c2dab" y="252"/>
      </g>
     </g>
     <g id="text_3">
      <!-- 100 -->
      <defs>
       <path d="M 12.40625 8.296875 
L 28.515625 8.296875 
L 28.515625 63.921875 
L 10.984375 60.40625 
L 10.984375 69.390625 
L 28.421875 72.90625 
L 38.28125 72.90625 
L 38.28125 8.296875 
L 54.390625 8.296875 
L 54.390625 0 
L 12.40625 0 
z
" id="DejaVuSans-49"/>
      </defs>
      <g transform="translate(178.304353 266.598437)scale(0.1 -0.1)">
       <use xlink:href="#DejaVuSans-49"/>
       <use x="63.623047" xlink:href="#DejaVuSans-48"/>
       <use x="127.246094" xlink:href="#DejaVuSans-48"/>
      </g>
     </g>
    </g>
    <g id="xtick_4">
     <g id="line2d_4">
      <g>
       <use style="stroke:#000000;stroke-width:0.8;" x="247.762205" xlink:href="#m0b473c2dab" y="252"/>
      </g>
     </g>
     <g id="text_4">
      <!-- 150 -->
      <g transform="translate(238.218455 266.598437)scale(0.1 -0.1)">
       <use xlink:href="#DejaVuSans-49"/>
       <use x="63.623047" xlink:href="#DejaVuSans-53"/>
       <use x="127.246094" xlink:href="#DejaVuSans-48"/>
      </g>
     </g>
    </g>
    <g id="xtick_5">
     <g id="line2d_5">
      <g>
       <use style="stroke:#000000;stroke-width:0.8;" x="307.676306" xlink:href="#m0b473c2dab" y="252"/>
      </g>
     </g>
     <g id="text_5">
      <!-- 200 -->
      <defs>
       <path d="M 19.1875 8.296875 
L 53.609375 8.296875 
L 53.609375 0 
L 7.328125 0 
L 7.328125 8.296875 
Q 12.9375 14.109375 22.625 23.890625 
Q 32.328125 33.6875 34.8125 36.53125 
Q 39.546875 41.84375 41.421875 45.53125 
Q 43.3125 49.21875 43.3125 52.78125 
Q 43.3125 58.59375 39.234375 62.25 
Q 35.15625 65.921875 28.609375 65.921875 
Q 23.96875 65.921875 18.8125 64.3125 
Q 13.671875 62.703125 7.8125 59.421875 
L 7.8125 69.390625 
Q 13.765625 71.78125 18.9375 73 
Q 24.125 74.21875 28.421875 74.21875 
Q 39.75 74.21875 46.484375 68.546875 
Q 53.21875 62.890625 53.21875 53.421875 
Q 53.21875 48.921875 51.53125 44.890625 
Q 49.859375 40.875 45.40625 35.40625 
Q 44.1875 33.984375 37.640625 27.21875 
Q 31.109375 20.453125 19.1875 8.296875 
z
" id="DejaVuSans-50"/>
      </defs>
      <g transform="translate(298.132556 266.598437)scale(0.1 -0.1)">
       <use xlink:href="#DejaVuSans-50"/>
       <use x="63.623047" xlink:href="#DejaVuSans-48"/>
       <use x="127.246094" xlink:href="#DejaVuSans-48"/>
      </g>
     </g>
    </g>
    <g id="xtick_6">
     <g id="line2d_6">
      <g>
       <use style="stroke:#000000;stroke-width:0.8;" x="367.590408" xlink:href="#m0b473c2dab" y="252"/>
      </g>
     </g>
     <g id="text_6">
      <!-- 250 -->
      <g transform="translate(358.046658 266.598437)scale(0.1 -0.1)">
       <use xlink:href="#DejaVuSans-50"/>
       <use x="63.623047" xlink:href="#DejaVuSans-53"/>
       <use x="127.246094" xlink:href="#DejaVuSans-48"/>
      </g>
     </g>
    </g>
    <g id="text_7">
     <!-- Value of Datapoints -->
     <defs>
      <path d="M 28.609375 0 
L 0.78125 72.90625 
L 11.078125 72.90625 
L 34.1875 11.53125 
L 57.328125 72.90625 
L 67.578125 72.90625 
L 39.796875 0 
z
" id="DejaVuSans-86"/>
      <path d="M 34.28125 27.484375 
Q 23.390625 27.484375 19.1875 25 
Q 14.984375 22.515625 14.984375 16.5 
Q 14.984375 11.71875 18.140625 8.90625 
Q 21.296875 6.109375 26.703125 6.109375 
Q 34.1875 6.109375 38.703125 11.40625 
Q 43.21875 16.703125 43.21875 25.484375 
L 43.21875 27.484375 
z
M 52.203125 31.203125 
L 52.203125 0 
L 43.21875 0 
L 43.21875 8.296875 
Q 40.140625 3.328125 35.546875 0.953125 
Q 30.953125 -1.421875 24.3125 -1.421875 
Q 15.921875 -1.421875 10.953125 3.296875 
Q 6 8.015625 6 15.921875 
Q 6 25.140625 12.171875 29.828125 
Q 18.359375 34.515625 30.609375 34.515625 
L 43.21875 34.515625 
L 43.21875 35.40625 
Q 43.21875 41.609375 39.140625 45 
Q 35.0625 48.390625 27.6875 48.390625 
Q 23 48.390625 18.546875 47.265625 
Q 14.109375 46.140625 10.015625 43.890625 
L 10.015625 52.203125 
Q 14.9375 54.109375 19.578125 55.046875 
Q 24.21875 56 28.609375 56 
Q 40.484375 56 46.34375 49.84375 
Q 52.203125 43.703125 52.203125 31.203125 
z
" id="DejaVuSans-97"/>
      <path d="M 9.421875 75.984375 
L 18.40625 75.984375 
L 18.40625 0 
L 9.421875 0 
z
" id="DejaVuSans-108"/>
      <path d="M 8.5 21.578125 
L 8.5 54.6875 
L 17.484375 54.6875 
L 17.484375 21.921875 
Q 17.484375 14.15625 20.5 10.265625 
Q 23.53125 6.390625 29.59375 6.390625 
Q 36.859375 6.390625 41.078125 11.03125 
Q 45.3125 15.671875 45.3125 23.6875 
L 45.3125 54.6875 
L 54.296875 54.6875 
L 54.296875 0 
L 45.3125 0 
L 45.3125 8.40625 
Q 42.046875 3.421875 37.71875 1 
Q 33.40625 -1.421875 27.6875 -1.421875 
Q 18.265625 -1.421875 13.375 4.4375 
Q 8.5 10.296875 8.5 21.578125 
z
M 31.109375 56 
z
" id="DejaVuSans-117"/>
      <path d="M 56.203125 29.59375 
L 56.203125 25.203125 
L 14.890625 25.203125 
Q 15.484375 15.921875 20.484375 11.0625 
Q 25.484375 6.203125 34.421875 6.203125 
Q 39.59375 6.203125 44.453125 7.46875 
Q 49.3125 8.734375 54.109375 11.28125 
L 54.109375 2.78125 
Q 49.265625 0.734375 44.1875 -0.34375 
Q 39.109375 -1.421875 33.890625 -1.421875 
Q 20.796875 -1.421875 13.15625 6.1875 
Q 5.515625 13.8125 5.515625 26.8125 
Q 5.515625 40.234375 12.765625 48.109375 
Q 20.015625 56 32.328125 56 
Q 43.359375 56 49.78125 48.890625 
Q 56.203125 41.796875 56.203125 29.59375 
z
M 47.21875 32.234375 
Q 47.125 39.59375 43.09375 43.984375 
Q 39.0625 48.390625 32.421875 48.390625 
Q 24.90625 48.390625 20.390625 44.140625 
Q 15.875 39.890625 15.1875 32.171875 
z
" id="DejaVuSans-101"/>
      <path id="DejaVuSans-32"/>
      <path d="M 30.609375 48.390625 
Q 23.390625 48.390625 19.1875 42.75 
Q 14.984375 37.109375 14.984375 27.296875 
Q 14.984375 17.484375 19.15625 11.84375 
Q 23.34375 6.203125 30.609375 6.203125 
Q 37.796875 6.203125 41.984375 11.859375 
Q 46.1875 17.53125 46.1875 27.296875 
Q 46.1875 37.015625 41.984375 42.703125 
Q 37.796875 48.390625 30.609375 48.390625 
z
M 30.609375 56 
Q 42.328125 56 49.015625 48.375 
Q 55.71875 40.765625 55.71875 27.296875 
Q 55.71875 13.875 49.015625 6.21875 
Q 42.328125 -1.421875 30.609375 -1.421875 
Q 18.84375 -1.421875 12.171875 6.21875 
Q 5.515625 13.875 5.515625 27.296875 
Q 5.515625 40.765625 12.171875 48.375 
Q 18.84375 56 30.609375 56 
z
" id="DejaVuSans-111"/>
      <path d="M 37.109375 75.984375 
L 37.109375 68.5 
L 28.515625 68.5 
Q 23.6875 68.5 21.796875 66.546875 
Q 19.921875 64.59375 19.921875 59.515625 
L 19.921875 54.6875 
L 34.71875 54.6875 
L 34.71875 47.703125 
L 19.921875 47.703125 
L 19.921875 0 
L 10.890625 0 
L 10.890625 47.703125 
L 2.296875 47.703125 
L 2.296875 54.6875 
L 10.890625 54.6875 
L 10.890625 58.5 
Q 10.890625 67.625 15.140625 71.796875 
Q 19.390625 75.984375 28.609375 75.984375 
z
" id="DejaVuSans-102"/>
      <path d="M 19.671875 64.796875 
L 19.671875 8.109375 
L 31.59375 8.109375 
Q 46.6875 8.109375 53.6875 14.9375 
Q 60.6875 21.78125 60.6875 36.53125 
Q 60.6875 51.171875 53.6875 57.984375 
Q 46.6875 64.796875 31.59375 64.796875 
z
M 9.8125 72.90625 
L 30.078125 72.90625 
Q 51.265625 72.90625 61.171875 64.09375 
Q 71.09375 55.28125 71.09375 36.53125 
Q 71.09375 17.671875 61.125 8.828125 
Q 51.171875 0 30.078125 0 
L 9.8125 0 
z
" id="DejaVuSans-68"/>
      <path d="M 18.3125 70.21875 
L 18.3125 54.6875 
L 36.8125 54.6875 
L 36.8125 47.703125 
L 18.3125 47.703125 
L 18.3125 18.015625 
Q 18.3125 11.328125 20.140625 9.421875 
Q 21.96875 7.515625 27.59375 7.515625 
L 36.8125 7.515625 
L 36.8125 0 
L 27.59375 0 
Q 17.1875 0 13.234375 3.875 
Q 9.28125 7.765625 9.28125 18.015625 
L 9.28125 47.703125 
L 2.6875 47.703125 
L 2.6875 54.6875 
L 9.28125 54.6875 
L 9.28125 70.21875 
z
" id="DejaVuSans-116"/>
      <path d="M 18.109375 8.203125 
L 18.109375 -20.796875 
L 9.078125 -20.796875 
L 9.078125 54.6875 
L 18.109375 54.6875 
L 18.109375 46.390625 
Q 20.953125 51.265625 25.265625 53.625 
Q 29.59375 56 35.59375 56 
Q 45.5625 56 51.78125 48.09375 
Q 58.015625 40.1875 58.015625 27.296875 
Q 58.015625 14.40625 51.78125 6.484375 
Q 45.5625 -1.421875 35.59375 -1.421875 
Q 29.59375 -1.421875 25.265625 0.953125 
Q 20.953125 3.328125 18.109375 8.203125 
z
M 48.6875 27.296875 
Q 48.6875 37.203125 44.609375 42.84375 
Q 40.53125 48.484375 33.40625 48.484375 
Q 26.265625 48.484375 22.1875 42.84375 
Q 18.109375 37.203125 18.109375 27.296875 
Q 18.109375 17.390625 22.1875 11.75 
Q 26.265625 6.109375 33.40625 6.109375 
Q 40.53125 6.109375 44.609375 11.75 
Q 48.6875 17.390625 48.6875 27.296875 
z
" id="DejaVuSans-112"/>
      <path d="M 9.421875 54.6875 
L 18.40625 54.6875 
L 18.40625 0 
L 9.421875 0 
z
M 9.421875 75.984375 
L 18.40625 75.984375 
L 18.40625 64.59375 
L 9.421875 64.59375 
z
" id="DejaVuSans-105"/>
      <path d="M 54.890625 33.015625 
L 54.890625 0 
L 45.90625 0 
L 45.90625 32.71875 
Q 45.90625 40.484375 42.875 44.328125 
Q 39.84375 48.1875 33.796875 48.1875 
Q 26.515625 48.1875 22.3125 43.546875 
Q 18.109375 38.921875 18.109375 30.90625 
L 18.109375 0 
L 9.078125 0 
L 9.078125 54.6875 
L 18.109375 54.6875 
L 18.109375 46.1875 
Q 21.34375 51.125 25.703125 53.5625 
Q 30.078125 56 35.796875 56 
Q 45.21875 56 50.046875 50.171875 
Q 54.890625 44.34375 54.890625 33.015625 
z
" id="DejaVuSans-110"/>
      <path d="M 44.28125 53.078125 
L 44.28125 44.578125 
Q 40.484375 46.53125 36.375 47.5 
Q 32.28125 48.484375 27.875 48.484375 
Q 21.1875 48.484375 17.84375 46.4375 
Q 14.5 44.390625 14.5 40.28125 
Q 14.5 37.15625 16.890625 35.375 
Q 19.28125 33.59375 26.515625 31.984375 
L 29.59375 31.296875 
Q 39.15625 29.25 43.1875 25.515625 
Q 47.21875 21.78125 47.21875 15.09375 
Q 47.21875 7.46875 41.1875 3.015625 
Q 35.15625 -1.421875 24.609375 -1.421875 
Q 20.21875 -1.421875 15.453125 -0.5625 
Q 10.6875 0.296875 5.421875 2 
L 5.421875 11.28125 
Q 10.40625 8.6875 15.234375 7.390625 
Q 20.0625 6.109375 24.8125 6.109375 
Q 31.15625 6.109375 34.5625 8.28125 
Q 37.984375 10.453125 37.984375 14.40625 
Q 37.984375 18.0625 35.515625 20.015625 
Q 33.0625 21.96875 24.703125 23.78125 
L 21.578125 24.515625 
Q 13.234375 26.265625 9.515625 29.90625 
Q 5.8125 33.546875 5.8125 39.890625 
Q 5.8125 47.609375 11.28125 51.796875 
Q 16.75 56 26.8125 56 
Q 31.78125 56 36.171875 55.265625 
Q 40.578125 54.546875 44.28125 53.078125 
z
" id="DejaVuSans-115"/>
     </defs>
     <g transform="translate(171.994531 280.276563)scale(0.1 -0.1)">
      <use xlink:href="#DejaVuSans-86"/>
      <use x="68.298828" xlink:href="#DejaVuSans-97"/>
      <use x="129.578125" xlink:href="#DejaVuSans-108"/>
      <use x="157.361328" xlink:href="#DejaVuSans-117"/>
      <use x="220.740234" xlink:href="#DejaVuSans-101"/>
      <use x="282.263672" xlink:href="#DejaVuSans-32"/>
      <use x="314.050781" xlink:href="#DejaVuSans-111"/>
      <use x="375.232422" xlink:href="#DejaVuSans-102"/>
      <use x="410.4375" xlink:href="#DejaVuSans-32"/>
      <use x="442.224609" xlink:href="#DejaVuSans-68"/>
      <use x="519.226562" xlink:href="#DejaVuSans-97"/>
      <use x="580.505859" xlink:href="#DejaVuSans-116"/>
      <use x="619.714844" xlink:href="#DejaVuSans-97"/>
      <use x="680.994141" xlink:href="#DejaVuSans-112"/>
      <use x="744.470703" xlink:href="#DejaVuSans-111"/>
      <use x="805.652344" xlink:href="#DejaVuSans-105"/>
      <use x="833.435547" xlink:href="#DejaVuSans-110"/>
      <use x="896.814453" xlink:href="#DejaVuSans-116"/>
      <use x="936.023438" xlink:href="#DejaVuSans-115"/>
     </g>
    </g>
   </g>
   <g id="matplotlib.axis_2">
    <g id="ytick_1">
     <g id="line2d_7">
      <defs>
       <path d="M 0 0 
L -3.5 0 
" id="m5e80fafd28" style="stroke:#000000;stroke-width:0.8;"/>
      </defs>
      <g>
       <use style="stroke:#000000;stroke-width:0.8;" x="54" xlink:href="#m5e80fafd28" y="242.116389"/>
      </g>
     </g>
     <g id="text_8">
      <!-- 0 -->
      <g transform="translate(40.6375 245.915607)scale(0.1 -0.1)">
       <use xlink:href="#DejaVuSans-48"/>
      </g>
     </g>
    </g>
    <g id="ytick_2">
     <g id="line2d_8">
      <g>
       <use style="stroke:#000000;stroke-width:0.8;" x="54" xlink:href="#m5e80fafd28" y="210.935563"/>
      </g>
     </g>
     <g id="text_9">
      <!-- 1 -->
      <g transform="translate(40.6375 214.734782)scale(0.1 -0.1)">
       <use xlink:href="#DejaVuSans-49"/>
      </g>
     </g>
    </g>
    <g id="ytick_3">
     <g id="line2d_9">
      <g>
       <use style="stroke:#000000;stroke-width:0.8;" x="54" xlink:href="#m5e80fafd28" y="179.754737"/>
      </g>
     </g>
     <g id="text_10">
      <!-- 2 -->
      <g transform="translate(40.6375 183.553956)scale(0.1 -0.1)">
       <use xlink:href="#DejaVuSans-50"/>
      </g>
     </g>
    </g>
    <g id="ytick_4">
     <g id="line2d_10">
      <g>
       <use style="stroke:#000000;stroke-width:0.8;" x="54" xlink:href="#m5e80fafd28" y="148.573912"/>
      </g>
     </g>
     <g id="text_11">
      <!-- 3 -->
      <defs>
       <path d="M 40.578125 39.3125 
Q 47.65625 37.796875 51.625 33 
Q 55.609375 28.21875 55.609375 21.1875 
Q 55.609375 10.40625 48.1875 4.484375 
Q 40.765625 -1.421875 27.09375 -1.421875 
Q 22.515625 -1.421875 17.65625 -0.515625 
Q 12.796875 0.390625 7.625 2.203125 
L 7.625 11.71875 
Q 11.71875 9.328125 16.59375 8.109375 
Q 21.484375 6.890625 26.8125 6.890625 
Q 36.078125 6.890625 40.9375 10.546875 
Q 45.796875 14.203125 45.796875 21.1875 
Q 45.796875 27.640625 41.28125 31.265625 
Q 36.765625 34.90625 28.71875 34.90625 
L 20.21875 34.90625 
L 20.21875 43.015625 
L 29.109375 43.015625 
Q 36.375 43.015625 40.234375 45.921875 
Q 44.09375 48.828125 44.09375 54.296875 
Q 44.09375 59.90625 40.109375 62.90625 
Q 36.140625 65.921875 28.71875 65.921875 
Q 24.65625 65.921875 20.015625 65.03125 
Q 15.375 64.15625 9.8125 62.3125 
L 9.8125 71.09375 
Q 15.4375 72.65625 20.34375 73.4375 
Q 25.25 74.21875 29.59375 74.21875 
Q 40.828125 74.21875 47.359375 69.109375 
Q 53.90625 64.015625 53.90625 55.328125 
Q 53.90625 49.265625 50.4375 45.09375 
Q 46.96875 40.921875 40.578125 39.3125 
z
" id="DejaVuSans-51"/>
      </defs>
      <g transform="translate(40.6375 152.373131)scale(0.1 -0.1)">
       <use xlink:href="#DejaVuSans-51"/>
      </g>
     </g>
    </g>
    <g id="ytick_5">
     <g id="line2d_11">
      <g>
       <use style="stroke:#000000;stroke-width:0.8;" x="54" xlink:href="#m5e80fafd28" y="117.393086"/>
      </g>
     </g>
     <g id="text_12">
      <!-- 4 -->
      <defs>
       <path d="M 37.796875 64.3125 
L 12.890625 25.390625 
L 37.796875 25.390625 
z
M 35.203125 72.90625 
L 47.609375 72.90625 
L 47.609375 25.390625 
L 58.015625 25.390625 
L 58.015625 17.1875 
L 47.609375 17.1875 
L 47.609375 0 
L 37.796875 0 
L 37.796875 17.1875 
L 4.890625 17.1875 
L 4.890625 26.703125 
z
" id="DejaVuSans-52"/>
      </defs>
      <g transform="translate(40.6375 121.192305)scale(0.1 -0.1)">
       <use xlink:href="#DejaVuSans-52"/>
      </g>
     </g>
    </g>
    <g id="ytick_6">
     <g id="line2d_12">
      <g>
       <use style="stroke:#000000;stroke-width:0.8;" x="54" xlink:href="#m5e80fafd28" y="86.212261"/>
      </g>
     </g>
     <g id="text_13">
      <!-- 5 -->
      <g transform="translate(40.6375 90.011479)scale(0.1 -0.1)">
       <use xlink:href="#DejaVuSans-53"/>
      </g>
     </g>
    </g>
    <g id="ytick_7">
     <g id="line2d_13">
      <g>
       <use style="stroke:#000000;stroke-width:0.8;" x="54" xlink:href="#m5e80fafd28" y="55.031435"/>
      </g>
     </g>
     <g id="text_14">
      <!-- 6 -->
      <defs>
       <path d="M 33.015625 40.375 
Q 26.375 40.375 22.484375 35.828125 
Q 18.609375 31.296875 18.609375 23.390625 
Q 18.609375 15.53125 22.484375 10.953125 
Q 26.375 6.390625 33.015625 6.390625 
Q 39.65625 6.390625 43.53125 10.953125 
Q 47.40625 15.53125 47.40625 23.390625 
Q 47.40625 31.296875 43.53125 35.828125 
Q 39.65625 40.375 33.015625 40.375 
z
M 52.59375 71.296875 
L 52.59375 62.3125 
Q 48.875 64.0625 45.09375 64.984375 
Q 41.3125 65.921875 37.59375 65.921875 
Q 27.828125 65.921875 22.671875 59.328125 
Q 17.53125 52.734375 16.796875 39.40625 
Q 19.671875 43.65625 24.015625 45.921875 
Q 28.375 48.1875 33.59375 48.1875 
Q 44.578125 48.1875 50.953125 41.515625 
Q 57.328125 34.859375 57.328125 23.390625 
Q 57.328125 12.15625 50.6875 5.359375 
Q 44.046875 -1.421875 33.015625 -1.421875 
Q 20.359375 -1.421875 13.671875 8.265625 
Q 6.984375 17.96875 6.984375 36.375 
Q 6.984375 53.65625 15.1875 63.9375 
Q 23.390625 74.21875 37.203125 74.21875 
Q 40.921875 74.21875 44.703125 73.484375 
Q 48.484375 72.75 52.59375 71.296875 
z
" id="DejaVuSans-54"/>
      </defs>
      <g transform="translate(40.6375 58.830654)scale(0.1 -0.1)">
       <use xlink:href="#DejaVuSans-54"/>
      </g>
     </g>
    </g>
    <g id="text_15">
     <!-- Number of Datapoints -->
     <defs>
      <path d="M 9.8125 72.90625 
L 23.09375 72.90625 
L 55.421875 11.921875 
L 55.421875 72.90625 
L 64.984375 72.90625 
L 64.984375 0 
L 51.703125 0 
L 19.390625 60.984375 
L 19.390625 0 
L 9.8125 0 
z
" id="DejaVuSans-78"/>
      <path d="M 52 44.1875 
Q 55.375 50.25 60.0625 53.125 
Q 64.75 56 71.09375 56 
Q 79.640625 56 84.28125 50.015625 
Q 88.921875 44.046875 88.921875 33.015625 
L 88.921875 0 
L 79.890625 0 
L 79.890625 32.71875 
Q 79.890625 40.578125 77.09375 44.375 
Q 74.3125 48.1875 68.609375 48.1875 
Q 61.625 48.1875 57.5625 43.546875 
Q 53.515625 38.921875 53.515625 30.90625 
L 53.515625 0 
L 44.484375 0 
L 44.484375 32.71875 
Q 44.484375 40.625 41.703125 44.40625 
Q 38.921875 48.1875 33.109375 48.1875 
Q 26.21875 48.1875 22.15625 43.53125 
Q 18.109375 38.875 18.109375 30.90625 
L 18.109375 0 
L 9.078125 0 
L 9.078125 54.6875 
L 18.109375 54.6875 
L 18.109375 46.1875 
Q 21.1875 51.21875 25.484375 53.609375 
Q 29.78125 56 35.6875 56 
Q 41.65625 56 45.828125 52.96875 
Q 50 49.953125 52 44.1875 
z
" id="DejaVuSans-109"/>
      <path d="M 48.6875 27.296875 
Q 48.6875 37.203125 44.609375 42.84375 
Q 40.53125 48.484375 33.40625 48.484375 
Q 26.265625 48.484375 22.1875 42.84375 
Q 18.109375 37.203125 18.109375 27.296875 
Q 18.109375 17.390625 22.1875 11.75 
Q 26.265625 6.109375 33.40625 6.109375 
Q 40.53125 6.109375 44.609375 11.75 
Q 48.6875 17.390625 48.6875 27.296875 
z
M 18.109375 46.390625 
Q 20.953125 51.265625 25.265625 53.625 
Q 29.59375 56 35.59375 56 
Q 45.5625 56 51.78125 48.09375 
Q 58.015625 40.1875 58.015625 27.296875 
Q 58.015625 14.40625 51.78125 6.484375 
Q 45.5625 -1.421875 35.59375 -1.421875 
Q 29.59375 -1.421875 25.265625 0.953125 
Q 20.953125 3.328125 18.109375 8.203125 
L 18.109375 0 
L 9.078125 0 
L 9.078125 75.984375 
L 18.109375 75.984375 
z
" id="DejaVuSans-98"/>
      <path d="M 41.109375 46.296875 
Q 39.59375 47.171875 37.8125 47.578125 
Q 36.03125 48 33.890625 48 
Q 26.265625 48 22.1875 43.046875 
Q 18.109375 38.09375 18.109375 28.8125 
L 18.109375 0 
L 9.078125 0 
L 9.078125 54.6875 
L 18.109375 54.6875 
L 18.109375 46.1875 
Q 20.953125 51.171875 25.484375 53.578125 
Q 30.03125 56 36.53125 56 
Q 37.453125 56 38.578125 55.875 
Q 39.703125 55.765625 41.0625 55.515625 
z
" id="DejaVuSans-114"/>
     </defs>
     <g transform="translate(34.557812 198.658125)rotate(-90)scale(0.1 -0.1)">
      <use xlink:href="#DejaVuSans-78"/>
      <use x="74.804688" xlink:href="#DejaVuSans-117"/>
      <use x="138.183594" xlink:href="#DejaVuSans-109"/>
      <use x="235.595703" xlink:href="#DejaVuSans-98"/>
      <use x="299.072266" xlink:href="#DejaVuSans-101"/>
      <use x="360.595703" xlink:href="#DejaVuSans-114"/>
      <use x="401.708984" xlink:href="#DejaVuSans-32"/>
      <use x="433.496094" xlink:href="#DejaVuSans-111"/>
      <use x="494.677734" xlink:href="#DejaVuSans-102"/>
      <use x="529.882812" xlink:href="#DejaVuSans-32"/>
      <use x="561.669922" xlink:href="#DejaVuSans-68"/>
      <use x="638.671875" xlink:href="#DejaVuSans-97"/>
      <use x="699.951172" xlink:href="#DejaVuSans-116"/>
      <use x="739.160156" xlink:href="#DejaVuSans-97"/>
      <use x="800.439453" xlink:href="#DejaVuSans-112"/>
      <use x="863.916016" xlink:href="#DejaVuSans-111"/>
      <use x="925.097656" xlink:href="#DejaVuSans-105"/>
      <use x="952.880859" xlink:href="#DejaVuSans-110"/>
      <use x="1016.259766" xlink:href="#DejaVuSans-116"/>
      <use x="1055.46875" xlink:href="#DejaVuSans-115"/>
     </g>
    </g>
    <g id="text_16">
     <!-- 1e7 -->
     <defs>
      <path d="M 8.203125 72.90625 
L 55.078125 72.90625 
L 55.078125 68.703125 
L 28.609375 0 
L 18.3125 0 
L 43.21875 64.59375 
L 8.203125 64.59375 
z
" id="DejaVuSans-55"/>
     </defs>
     <g transform="translate(54 31.56)scale(0.1 -0.1)">
      <use xlink:href="#DejaVuSans-49"/>
      <use x="63.623047" xlink:href="#DejaVuSans-101"/>
      <use x="125.146484" xlink:href="#DejaVuSans-55"/>
     </g>
    </g>
   </g>
   <g id="line2d_14">
    <defs>
     <path d="M 0 3 
C 0.795609 3 1.55874 2.683901 2.12132 2.12132 
C 2.683901 1.55874 3 0.795609 3 0 
C 3 -0.795609 2.683901 -1.55874 2.12132 -2.12132 
C 1.55874 -2.683901 0.795609 -3 0 -3 
C -0.795609 -3 -1.55874 -2.683901 -2.12132 -2.12132 
C -2.683901 -1.55874 -3 -0.795609 -3 0 
C -3 0.795609 -2.683901 1.55874 -2.12132 2.12132 
C -1.55874 2.683901 -0.795609 3 0 3 
z
" id="m26c9d12523" style="stroke:#ff0000;"/>
    </defs>
    <g clip-path="url(#p9022feedbe)">
     <use style="fill:#ff0000;stroke:#ff0000;" x="69.218182" xlink:href="#m26c9d12523" y="44.443636"/>
     <use style="fill:#ff0000;stroke:#ff0000;" x="70.416464" xlink:href="#m26c9d12523" y="110.656213"/>
     <use style="fill:#ff0000;stroke:#ff0000;" x="71.614746" xlink:href="#m26c9d12523" y="140.542763"/>
     <use style="fill:#ff0000;stroke:#ff0000;" x="72.813028" xlink:href="#m26c9d12523" y="192.624261"/>
     <use style="fill:#ff0000;stroke:#ff0000;" x="74.01131" xlink:href="#m26c9d12523" y="149.266768"/>
     <use style="fill:#ff0000;stroke:#ff0000;" x="75.209592" xlink:href="#m26c9d12523" y="206.269137"/>
     <use style="fill:#ff0000;stroke:#ff0000;" x="76.407874" xlink:href="#m26c9d12523" y="177.2053"/>
     <use style="fill:#ff0000;stroke:#ff0000;" x="77.606156" xlink:href="#m26c9d12523" y="215.057852"/>
     <use style="fill:#ff0000;stroke:#ff0000;" x="78.804438" xlink:href="#m26c9d12523" y="202.285908"/>
     <use style="fill:#ff0000;stroke:#ff0000;" x="80.00272" xlink:href="#m26c9d12523" y="198.804254"/>
     <use style="fill:#ff0000;stroke:#ff0000;" x="81.201002" xlink:href="#m26c9d12523" y="214.351597"/>
     <use style="fill:#ff0000;stroke:#ff0000;" x="82.399284" xlink:href="#m26c9d12523" y="216.042995"/>
     <use style="fill:#ff0000;stroke:#ff0000;" x="83.597566" xlink:href="#m26c9d12523" y="226.35073"/>
     <use style="fill:#ff0000;stroke:#ff0000;" x="84.795848" xlink:href="#m26c9d12523" y="219.615083"/>
     <use style="fill:#ff0000;stroke:#ff0000;" x="85.99413" xlink:href="#m26c9d12523" y="219.879094"/>
     <use style="fill:#ff0000;stroke:#ff0000;" x="87.192412" xlink:href="#m26c9d12523" y="229.47634"/>
     <use style="fill:#ff0000;stroke:#ff0000;" x="88.390694" xlink:href="#m26c9d12523" y="222.874212"/>
     <use style="fill:#ff0000;stroke:#ff0000;" x="89.588976" xlink:href="#m26c9d12523" y="222.101401"/>
     <use style="fill:#ff0000;stroke:#ff0000;" x="90.787258" xlink:href="#m26c9d12523" y="232.117253"/>
     <use style="fill:#ff0000;stroke:#ff0000;" x="91.98554" xlink:href="#m26c9d12523" y="219.34728"/>
     <use style="fill:#ff0000;stroke:#ff0000;" x="93.183822" xlink:href="#m26c9d12523" y="231.74603"/>
     <use style="fill:#ff0000;stroke:#ff0000;" x="94.382105" xlink:href="#m26c9d12523" y="233.882717"/>
     <use style="fill:#ff0000;stroke:#ff0000;" x="95.580387" xlink:href="#m26c9d12523" y="227.316497"/>
     <use style="fill:#ff0000;stroke:#ff0000;" x="96.778669" xlink:href="#m26c9d12523" y="234.822373"/>
     <use style="fill:#ff0000;stroke:#ff0000;" x="97.976951" xlink:href="#m26c9d12523" y="228.307442"/>
     <use style="fill:#ff0000;stroke:#ff0000;" x="99.175233" xlink:href="#m26c9d12523" y="235.567258"/>
     <use style="fill:#ff0000;stroke:#ff0000;" x="100.373515" xlink:href="#m26c9d12523" y="230.729164"/>
     <use style="fill:#ff0000;stroke:#ff0000;" x="101.571797" xlink:href="#m26c9d12523" y="229.913932"/>
     <use style="fill:#ff0000;stroke:#ff0000;" x="102.770079" xlink:href="#m26c9d12523" y="236.722056"/>
     <use style="fill:#ff0000;stroke:#ff0000;" x="103.968361" xlink:href="#m26c9d12523" y="235.405068"/>
     <use style="fill:#ff0000;stroke:#ff0000;" x="105.166643" xlink:href="#m26c9d12523" y="231.321515"/>
     <use style="fill:#ff0000;stroke:#ff0000;" x="106.364925" xlink:href="#m26c9d12523" y="237.364842"/>
     <use style="fill:#ff0000;stroke:#ff0000;" x="107.563207" xlink:href="#m26c9d12523" y="237.192811"/>
     <use style="fill:#ff0000;stroke:#ff0000;" x="108.761489" xlink:href="#m26c9d12523" y="232.387191"/>
     <use style="fill:#ff0000;stroke:#ff0000;" x="109.959771" xlink:href="#m26c9d12523" y="238.001595"/>
     <use style="fill:#ff0000;stroke:#ff0000;" x="111.158053" xlink:href="#m26c9d12523" y="237.801181"/>
     <use style="fill:#ff0000;stroke:#ff0000;" x="112.356335" xlink:href="#m26c9d12523" y="233.25235"/>
     <use style="fill:#ff0000;stroke:#ff0000;" x="113.554617" xlink:href="#m26c9d12523" y="238.226777"/>
     <use style="fill:#ff0000;stroke:#ff0000;" x="114.752899" xlink:href="#m26c9d12523" y="238.736418"/>
     <use style="fill:#ff0000;stroke:#ff0000;" x="115.951181" xlink:href="#m26c9d12523" y="233.942594"/>
     <use style="fill:#ff0000;stroke:#ff0000;" x="117.149463" xlink:href="#m26c9d12523" y="238.733247"/>
     <use style="fill:#ff0000;stroke:#ff0000;" x="118.347745" xlink:href="#m26c9d12523" y="239.100149"/>
     <use style="fill:#ff0000;stroke:#ff0000;" x="119.546027" xlink:href="#m26c9d12523" y="234.728862"/>
     <use style="fill:#ff0000;stroke:#ff0000;" x="120.744309" xlink:href="#m26c9d12523" y="239.239334"/>
     <use style="fill:#ff0000;stroke:#ff0000;" x="121.942591" xlink:href="#m26c9d12523" y="239.419044"/>
     <use style="fill:#ff0000;stroke:#ff0000;" x="123.140873" xlink:href="#m26c9d12523" y="238.650503"/>
     <use style="fill:#ff0000;stroke:#ff0000;" x="124.339155" xlink:href="#m26c9d12523" y="236.060714"/>
     <use style="fill:#ff0000;stroke:#ff0000;" x="125.537437" xlink:href="#m26c9d12523" y="239.718249"/>
     <use style="fill:#ff0000;stroke:#ff0000;" x="126.735719" xlink:href="#m26c9d12523" y="239.699482"/>
     <use style="fill:#ff0000;stroke:#ff0000;" x="127.934001" xlink:href="#m26c9d12523" y="239.008362"/>
     <use style="fill:#ff0000;stroke:#ff0000;" x="129.132283" xlink:href="#m26c9d12523" y="236.572955"/>
     <use style="fill:#ff0000;stroke:#ff0000;" x="130.330565" xlink:href="#m26c9d12523" y="239.924146"/>
     <use style="fill:#ff0000;stroke:#ff0000;" x="131.528848" xlink:href="#m26c9d12523" y="240.103015"/>
     <use style="fill:#ff0000;stroke:#ff0000;" x="132.72713" xlink:href="#m26c9d12523" y="239.631822"/>
     <use style="fill:#ff0000;stroke:#ff0000;" x="133.925412" xlink:href="#m26c9d12523" y="240.081774"/>
     <use style="fill:#ff0000;stroke:#ff0000;" x="135.123694" xlink:href="#m26c9d12523" y="236.950577"/>
     <use style="fill:#ff0000;stroke:#ff0000;" x="136.321976" xlink:href="#m26c9d12523" y="238.280012"/>
     <use style="fill:#ff0000;stroke:#ff0000;" x="137.520258" xlink:href="#m26c9d12523" y="240.304739"/>
     <use style="fill:#ff0000;stroke:#ff0000;" x="138.71854" xlink:href="#m26c9d12523" y="240.502955"/>
     <use style="fill:#ff0000;stroke:#ff0000;" x="139.916822" xlink:href="#m26c9d12523" y="237.572098"/>
     <use style="fill:#ff0000;stroke:#ff0000;" x="141.115104" xlink:href="#m26c9d12523" y="240.516563"/>
     <use style="fill:#ff0000;stroke:#ff0000;" x="142.313386" xlink:href="#m26c9d12523" y="238.726247"/>
     <use style="fill:#ff0000;stroke:#ff0000;" x="143.511668" xlink:href="#m26c9d12523" y="240.630332"/>
     <use style="fill:#ff0000;stroke:#ff0000;" x="144.70995" xlink:href="#m26c9d12523" y="238.134622"/>
     <use style="fill:#ff0000;stroke:#ff0000;" x="145.908232" xlink:href="#m26c9d12523" y="240.849368"/>
     <use style="fill:#ff0000;stroke:#ff0000;" x="147.106514" xlink:href="#m26c9d12523" y="240.793517"/>
     <use style="fill:#ff0000;stroke:#ff0000;" x="148.304796" xlink:href="#m26c9d12523" y="239.297561"/>
     <use style="fill:#ff0000;stroke:#ff0000;" x="149.503078" xlink:href="#m26c9d12523" y="240.807405"/>
     <use style="fill:#ff0000;stroke:#ff0000;" x="150.70136" xlink:href="#m26c9d12523" y="240.943896"/>
     <use style="fill:#ff0000;stroke:#ff0000;" x="151.899642" xlink:href="#m26c9d12523" y="238.646306"/>
     <use style="fill:#ff0000;stroke:#ff0000;" x="153.097924" xlink:href="#m26c9d12523" y="241.123569"/>
     <use style="fill:#ff0000;stroke:#ff0000;" x="154.296206" xlink:href="#m26c9d12523" y="239.712322"/>
     <use style="fill:#ff0000;stroke:#ff0000;" x="155.494488" xlink:href="#m26c9d12523" y="241.12529"/>
     <use style="fill:#ff0000;stroke:#ff0000;" x="156.69277" xlink:href="#m26c9d12523" y="241.162935"/>
     <use style="fill:#ff0000;stroke:#ff0000;" x="157.891052" xlink:href="#m26c9d12523" y="241.123937"/>
     <use style="fill:#ff0000;stroke:#ff0000;" x="159.089334" xlink:href="#m26c9d12523" y="237.928021"/>
     <use style="fill:#ff0000;stroke:#ff0000;" x="160.287616" xlink:href="#m26c9d12523" y="241.291693"/>
     <use style="fill:#ff0000;stroke:#ff0000;" x="161.485898" xlink:href="#m26c9d12523" y="241.370337"/>
     <use style="fill:#ff0000;stroke:#ff0000;" x="162.68418" xlink:href="#m26c9d12523" y="241.350279"/>
     <use style="fill:#ff0000;stroke:#ff0000;" x="163.882462" xlink:href="#m26c9d12523" y="241.34475"/>
     <use style="fill:#ff0000;stroke:#ff0000;" x="165.080744" xlink:href="#m26c9d12523" y="241.358978"/>
     <use style="fill:#ff0000;stroke:#ff0000;" x="166.279026" xlink:href="#m26c9d12523" y="238.499176"/>
     <use style="fill:#ff0000;stroke:#ff0000;" x="167.477309" xlink:href="#m26c9d12523" y="241.482523"/>
     <use style="fill:#ff0000;stroke:#ff0000;" x="168.675591" xlink:href="#m26c9d12523" y="241.545914"/>
     <use style="fill:#ff0000;stroke:#ff0000;" x="169.873873" xlink:href="#m26c9d12523" y="241.524664"/>
     <use style="fill:#ff0000;stroke:#ff0000;" x="171.072155" xlink:href="#m26c9d12523" y="241.547479"/>
     <use style="fill:#ff0000;stroke:#ff0000;" x="172.270437" xlink:href="#m26c9d12523" y="241.540092"/>
     <use style="fill:#ff0000;stroke:#ff0000;" x="173.468719" xlink:href="#m26c9d12523" y="240.653132"/>
     <use style="fill:#ff0000;stroke:#ff0000;" x="174.667001" xlink:href="#m26c9d12523" y="239.96894"/>
     <use style="fill:#ff0000;stroke:#ff0000;" x="175.865283" xlink:href="#m26c9d12523" y="241.6631"/>
     <use style="fill:#ff0000;stroke:#ff0000;" x="177.063565" xlink:href="#m26c9d12523" y="241.681865"/>
     <use style="fill:#ff0000;stroke:#ff0000;" x="178.261847" xlink:href="#m26c9d12523" y="241.698101"/>
     <use style="fill:#ff0000;stroke:#ff0000;" x="179.460129" xlink:href="#m26c9d12523" y="241.693857"/>
     <use style="fill:#ff0000;stroke:#ff0000;" x="180.658411" xlink:href="#m26c9d12523" y="241.731062"/>
     <use style="fill:#ff0000;stroke:#ff0000;" x="181.856693" xlink:href="#m26c9d12523" y="240.915269"/>
     <use style="fill:#ff0000;stroke:#ff0000;" x="183.054975" xlink:href="#m26c9d12523" y="241.772074"/>
     <use style="fill:#ff0000;stroke:#ff0000;" x="184.253257" xlink:href="#m26c9d12523" y="241.768373"/>
     <use style="fill:#ff0000;stroke:#ff0000;" x="185.451539" xlink:href="#m26c9d12523" y="241.778803"/>
     <use style="fill:#ff0000;stroke:#ff0000;" x="186.649821" xlink:href="#m26c9d12523" y="241.795257"/>
     <use style="fill:#ff0000;stroke:#ff0000;" x="187.848103" xlink:href="#m26c9d12523" y="241.771685"/>
     <use style="fill:#ff0000;stroke:#ff0000;" x="189.046385" xlink:href="#m26c9d12523" y="241.81188"/>
     <use style="fill:#ff0000;stroke:#ff0000;" x="190.244667" xlink:href="#m26c9d12523" y="241.096557"/>
     <use style="fill:#ff0000;stroke:#ff0000;" x="191.442949" xlink:href="#m26c9d12523" y="241.832235"/>
     <use style="fill:#ff0000;stroke:#ff0000;" x="192.641231" xlink:href="#m26c9d12523" y="241.839266"/>
     <use style="fill:#ff0000;stroke:#ff0000;" x="193.839513" xlink:href="#m26c9d12523" y="241.844345"/>
     <use style="fill:#ff0000;stroke:#ff0000;" x="195.037795" xlink:href="#m26c9d12523" y="241.86402"/>
     <use style="fill:#ff0000;stroke:#ff0000;" x="196.236077" xlink:href="#m26c9d12523" y="241.856846"/>
     <use style="fill:#ff0000;stroke:#ff0000;" x="197.434359" xlink:href="#m26c9d12523" y="241.862196"/>
     <use style="fill:#ff0000;stroke:#ff0000;" x="198.632641" xlink:href="#m26c9d12523" y="241.874874"/>
     <use style="fill:#ff0000;stroke:#ff0000;" x="199.830923" xlink:href="#m26c9d12523" y="241.238857"/>
     <use style="fill:#ff0000;stroke:#ff0000;" x="201.029205" xlink:href="#m26c9d12523" y="241.890995"/>
     <use style="fill:#ff0000;stroke:#ff0000;" x="202.227487" xlink:href="#m26c9d12523" y="241.886165"/>
     <use style="fill:#ff0000;stroke:#ff0000;" x="203.42577" xlink:href="#m26c9d12523" y="241.901291"/>
     <use style="fill:#ff0000;stroke:#ff0000;" x="204.624052" xlink:href="#m26c9d12523" y="241.906158"/>
     <use style="fill:#ff0000;stroke:#ff0000;" x="205.822334" xlink:href="#m26c9d12523" y="241.908743"/>
     <use style="fill:#ff0000;stroke:#ff0000;" x="207.020616" xlink:href="#m26c9d12523" y="241.914989"/>
     <use style="fill:#ff0000;stroke:#ff0000;" x="208.218898" xlink:href="#m26c9d12523" y="241.918481"/>
     <use style="fill:#ff0000;stroke:#ff0000;" x="209.41718" xlink:href="#m26c9d12523" y="241.93143"/>
     <use style="fill:#ff0000;stroke:#ff0000;" x="210.615462" xlink:href="#m26c9d12523" y="241.382688"/>
     <use style="fill:#ff0000;stroke:#ff0000;" x="211.813744" xlink:href="#m26c9d12523" y="241.925836"/>
     <use style="fill:#ff0000;stroke:#ff0000;" x="213.012026" xlink:href="#m26c9d12523" y="241.940024"/>
     <use style="fill:#ff0000;stroke:#ff0000;" x="214.210308" xlink:href="#m26c9d12523" y="241.944074"/>
     <use style="fill:#ff0000;stroke:#ff0000;" x="215.40859" xlink:href="#m26c9d12523" y="241.947348"/>
     <use style="fill:#ff0000;stroke:#ff0000;" x="216.606872" xlink:href="#m26c9d12523" y="241.949821"/>
     <use style="fill:#ff0000;stroke:#ff0000;" x="217.805154" xlink:href="#m26c9d12523" y="241.945904"/>
     <use style="fill:#ff0000;stroke:#ff0000;" x="219.003436" xlink:href="#m26c9d12523" y="241.955464"/>
     <use style="fill:#ff0000;stroke:#ff0000;" x="220.201718" xlink:href="#m26c9d12523" y="241.477023"/>
     <use style="fill:#ff0000;stroke:#ff0000;" x="221.4" xlink:href="#m26c9d12523" y="241.965389"/>
     <use style="fill:#ff0000;stroke:#ff0000;" x="222.598282" xlink:href="#m26c9d12523" y="241.965929"/>
     <use style="fill:#ff0000;stroke:#ff0000;" x="223.796564" xlink:href="#m26c9d12523" y="241.966412"/>
     <use style="fill:#ff0000;stroke:#ff0000;" x="224.994846" xlink:href="#m26c9d12523" y="241.98064"/>
     <use style="fill:#ff0000;stroke:#ff0000;" x="226.193128" xlink:href="#m26c9d12523" y="241.97701"/>
     <use style="fill:#ff0000;stroke:#ff0000;" x="227.39141" xlink:href="#m26c9d12523" y="241.978226"/>
     <use style="fill:#ff0000;stroke:#ff0000;" x="228.589692" xlink:href="#m26c9d12523" y="241.981912"/>
     <use style="fill:#ff0000;stroke:#ff0000;" x="229.787974" xlink:href="#m26c9d12523" y="241.9829"/>
     <use style="fill:#ff0000;stroke:#ff0000;" x="230.986256" xlink:href="#m26c9d12523" y="241.986121"/>
     <use style="fill:#ff0000;stroke:#ff0000;" x="232.184538" xlink:href="#m26c9d12523" y="241.570023"/>
     <use style="fill:#ff0000;stroke:#ff0000;" x="233.38282" xlink:href="#m26c9d12523" y="241.996632"/>
     <use style="fill:#ff0000;stroke:#ff0000;" x="234.581102" xlink:href="#m26c9d12523" y="241.993193"/>
     <use style="fill:#ff0000;stroke:#ff0000;" x="235.779384" xlink:href="#m26c9d12523" y="239.994406"/>
     <use style="fill:#ff0000;stroke:#ff0000;" x="236.977666" xlink:href="#m26c9d12523" y="240.205169"/>
     <use style="fill:#ff0000;stroke:#ff0000;" x="238.175948" xlink:href="#m26c9d12523" y="240.84084"/>
     <use style="fill:#ff0000;stroke:#ff0000;" x="239.37423" xlink:href="#m26c9d12523" y="241.065055"/>
     <use style="fill:#ff0000;stroke:#ff0000;" x="240.572513" xlink:href="#m26c9d12523" y="241.05016"/>
     <use style="fill:#ff0000;stroke:#ff0000;" x="241.770795" xlink:href="#m26c9d12523" y="241.407714"/>
     <use style="fill:#ff0000;stroke:#ff0000;" x="242.969077" xlink:href="#m26c9d12523" y="241.515188"/>
     <use style="fill:#ff0000;stroke:#ff0000;" x="244.167359" xlink:href="#m26c9d12523" y="241.606535"/>
     <use style="fill:#ff0000;stroke:#ff0000;" x="245.365641" xlink:href="#m26c9d12523" y="241.657818"/>
     <use style="fill:#ff0000;stroke:#ff0000;" x="246.563923" xlink:href="#m26c9d12523" y="241.736725"/>
     <use style="fill:#ff0000;stroke:#ff0000;" x="247.762205" xlink:href="#m26c9d12523" y="241.78874"/>
     <use style="fill:#ff0000;stroke:#ff0000;" x="248.960487" xlink:href="#m26c9d12523" y="241.8336"/>
     <use style="fill:#ff0000;stroke:#ff0000;" x="250.158769" xlink:href="#m26c9d12523" y="241.860781"/>
     <use style="fill:#ff0000;stroke:#ff0000;" x="251.357051" xlink:href="#m26c9d12523" y="241.951913"/>
     <use style="fill:#ff0000;stroke:#ff0000;" x="252.555333" xlink:href="#m26c9d12523" y="241.924567"/>
     <use style="fill:#ff0000;stroke:#ff0000;" x="253.753615" xlink:href="#m26c9d12523" y="241.946968"/>
     <use style="fill:#ff0000;stroke:#ff0000;" x="254.951897" xlink:href="#m26c9d12523" y="242.00077"/>
     <use style="fill:#ff0000;stroke:#ff0000;" x="256.150179" xlink:href="#m26c9d12523" y="241.982735"/>
     <use style="fill:#ff0000;stroke:#ff0000;" x="257.348461" xlink:href="#m26c9d12523" y="241.99841"/>
     <use style="fill:#ff0000;stroke:#ff0000;" x="258.546743" xlink:href="#m26c9d12523" y="242.044295"/>
     <use style="fill:#ff0000;stroke:#ff0000;" x="259.745025" xlink:href="#m26c9d12523" y="242.018362"/>
     <use style="fill:#ff0000;stroke:#ff0000;" x="260.943307" xlink:href="#m26c9d12523" y="242.059636"/>
     <use style="fill:#ff0000;stroke:#ff0000;" x="262.141589" xlink:href="#m26c9d12523" y="242.04201"/>
     <use style="fill:#ff0000;stroke:#ff0000;" x="263.339871" xlink:href="#m26c9d12523" y="242.071825"/>
     <use style="fill:#ff0000;stroke:#ff0000;" x="264.538153" xlink:href="#m26c9d12523" y="242.052671"/>
     <use style="fill:#ff0000;stroke:#ff0000;" x="265.736435" xlink:href="#m26c9d12523" y="242.081407"/>
     <use style="fill:#ff0000;stroke:#ff0000;" x="266.934717" xlink:href="#m26c9d12523" y="242.067516"/>
     <use style="fill:#ff0000;stroke:#ff0000;" x="268.132999" xlink:href="#m26c9d12523" y="242.088416"/>
     <use style="fill:#ff0000;stroke:#ff0000;" x="269.331281" xlink:href="#m26c9d12523" y="242.077325"/>
     <use style="fill:#ff0000;stroke:#ff0000;" x="270.529563" xlink:href="#m26c9d12523" y="242.093031"/>
     <use style="fill:#ff0000;stroke:#ff0000;" x="271.727845" xlink:href="#m26c9d12523" y="242.083611"/>
     <use style="fill:#ff0000;stroke:#ff0000;" x="272.926127" xlink:href="#m26c9d12523" y="242.099058"/>
     <use style="fill:#ff0000;stroke:#ff0000;" x="274.124409" xlink:href="#m26c9d12523" y="242.090562"/>
     <use style="fill:#ff0000;stroke:#ff0000;" x="275.322691" xlink:href="#m26c9d12523" y="242.101646"/>
     <use style="fill:#ff0000;stroke:#ff0000;" x="276.520974" xlink:href="#m26c9d12523" y="242.104474"/>
     <use style="fill:#ff0000;stroke:#ff0000;" x="277.719256" xlink:href="#m26c9d12523" y="242.09681"/>
     <use style="fill:#ff0000;stroke:#ff0000;" x="278.917538" xlink:href="#m26c9d12523" y="242.106507"/>
     <use style="fill:#ff0000;stroke:#ff0000;" x="280.11582" xlink:href="#m26c9d12523" y="242.106735"/>
     <use style="fill:#ff0000;stroke:#ff0000;" x="281.314102" xlink:href="#m26c9d12523" y="242.101637"/>
     <use style="fill:#ff0000;stroke:#ff0000;" x="282.512384" xlink:href="#m26c9d12523" y="242.109638"/>
     <use style="fill:#ff0000;stroke:#ff0000;" x="283.710666" xlink:href="#m26c9d12523" y="242.109625"/>
     <use style="fill:#ff0000;stroke:#ff0000;" x="284.908948" xlink:href="#m26c9d12523" y="242.104518"/>
     <use style="fill:#ff0000;stroke:#ff0000;" x="286.10723" xlink:href="#m26c9d12523" y="242.111172"/>
     <use style="fill:#ff0000;stroke:#ff0000;" x="287.305512" xlink:href="#m26c9d12523" y="242.111403"/>
     <use style="fill:#ff0000;stroke:#ff0000;" x="288.503794" xlink:href="#m26c9d12523" y="242.107935"/>
     <use style="fill:#ff0000;stroke:#ff0000;" x="289.702076" xlink:href="#m26c9d12523" y="242.112391"/>
     <use style="fill:#ff0000;stroke:#ff0000;" x="290.900358" xlink:href="#m26c9d12523" y="242.112691"/>
     <use style="fill:#ff0000;stroke:#ff0000;" x="292.09864" xlink:href="#m26c9d12523" y="242.109541"/>
     <use style="fill:#ff0000;stroke:#ff0000;" x="293.296922" xlink:href="#m26c9d12523" y="242.113339"/>
     <use style="fill:#ff0000;stroke:#ff0000;" x="294.495204" xlink:href="#m26c9d12523" y="242.113492"/>
     <use style="fill:#ff0000;stroke:#ff0000;" x="295.693486" xlink:href="#m26c9d12523" y="242.111231"/>
     <use style="fill:#ff0000;stroke:#ff0000;" x="296.891768" xlink:href="#m26c9d12523" y="242.114078"/>
     <use style="fill:#ff0000;stroke:#ff0000;" x="298.09005" xlink:href="#m26c9d12523" y="242.114299"/>
     <use style="fill:#ff0000;stroke:#ff0000;" x="299.288332" xlink:href="#m26c9d12523" y="242.114458"/>
     <use style="fill:#ff0000;stroke:#ff0000;" x="300.486614" xlink:href="#m26c9d12523" y="242.112809"/>
     <use style="fill:#ff0000;stroke:#ff0000;" x="301.684896" xlink:href="#m26c9d12523" y="242.114932"/>
     <use style="fill:#ff0000;stroke:#ff0000;" x="302.883178" xlink:href="#m26c9d12523" y="242.11501"/>
     <use style="fill:#ff0000;stroke:#ff0000;" x="304.08146" xlink:href="#m26c9d12523" y="242.114995"/>
     <use style="fill:#ff0000;stroke:#ff0000;" x="305.279742" xlink:href="#m26c9d12523" y="242.113501"/>
     <use style="fill:#ff0000;stroke:#ff0000;" x="306.478024" xlink:href="#m26c9d12523" y="242.115338"/>
     <use style="fill:#ff0000;stroke:#ff0000;" x="307.676306" xlink:href="#m26c9d12523" y="242.115434"/>
     <use style="fill:#ff0000;stroke:#ff0000;" x="308.874588" xlink:href="#m26c9d12523" y="242.115438"/>
     <use style="fill:#ff0000;stroke:#ff0000;" x="310.07287" xlink:href="#m26c9d12523" y="242.114184"/>
     <use style="fill:#ff0000;stroke:#ff0000;" x="311.271152" xlink:href="#m26c9d12523" y="242.115631"/>
     <use style="fill:#ff0000;stroke:#ff0000;" x="312.469435" xlink:href="#m26c9d12523" y="242.115771"/>
     <use style="fill:#ff0000;stroke:#ff0000;" x="313.667717" xlink:href="#m26c9d12523" y="242.115765"/>
     <use style="fill:#ff0000;stroke:#ff0000;" x="314.865999" xlink:href="#m26c9d12523" y="242.115014"/>
     <use style="fill:#ff0000;stroke:#ff0000;" x="316.064281" xlink:href="#m26c9d12523" y="242.115834"/>
     <use style="fill:#ff0000;stroke:#ff0000;" x="317.262563" xlink:href="#m26c9d12523" y="242.115846"/>
     <use style="fill:#ff0000;stroke:#ff0000;" x="318.460845" xlink:href="#m26c9d12523" y="242.115977"/>
     <use style="fill:#ff0000;stroke:#ff0000;" x="319.659127" xlink:href="#m26c9d12523" y="242.115943"/>
     <use style="fill:#ff0000;stroke:#ff0000;" x="320.857409" xlink:href="#m26c9d12523" y="242.115413"/>
     <use style="fill:#ff0000;stroke:#ff0000;" x="322.055691" xlink:href="#m26c9d12523" y="242.116024"/>
     <use style="fill:#ff0000;stroke:#ff0000;" x="323.253973" xlink:href="#m26c9d12523" y="242.116089"/>
     <use style="fill:#ff0000;stroke:#ff0000;" x="324.452255" xlink:href="#m26c9d12523" y="242.116077"/>
     <use style="fill:#ff0000;stroke:#ff0000;" x="325.650537" xlink:href="#m26c9d12523" y="242.116024"/>
     <use style="fill:#ff0000;stroke:#ff0000;" x="326.848819" xlink:href="#m26c9d12523" y="242.115724"/>
     <use style="fill:#ff0000;stroke:#ff0000;" x="328.047101" xlink:href="#m26c9d12523" y="242.116173"/>
     <use style="fill:#ff0000;stroke:#ff0000;" x="329.245383" xlink:href="#m26c9d12523" y="242.11612"/>
     <use style="fill:#ff0000;stroke:#ff0000;" x="330.443665" xlink:href="#m26c9d12523" y="242.116189"/>
     <use style="fill:#ff0000;stroke:#ff0000;" x="331.641947" xlink:href="#m26c9d12523" y="242.116214"/>
     <use style="fill:#ff0000;stroke:#ff0000;" x="332.840229" xlink:href="#m26c9d12523" y="242.116008"/>
     <use style="fill:#ff0000;stroke:#ff0000;" x="334.038511" xlink:href="#m26c9d12523" y="242.116242"/>
     <use style="fill:#ff0000;stroke:#ff0000;" x="335.236793" xlink:href="#m26c9d12523" y="242.116214"/>
     <use style="fill:#ff0000;stroke:#ff0000;" x="336.435075" xlink:href="#m26c9d12523" y="242.116255"/>
     <use style="fill:#ff0000;stroke:#ff0000;" x="337.633357" xlink:href="#m26c9d12523" y="242.116217"/>
     <use style="fill:#ff0000;stroke:#ff0000;" x="338.831639" xlink:href="#m26c9d12523" y="242.116276"/>
     <use style="fill:#ff0000;stroke:#ff0000;" x="340.029921" xlink:href="#m26c9d12523" y="242.11612"/>
     <use style="fill:#ff0000;stroke:#ff0000;" x="341.228203" xlink:href="#m26c9d12523" y="242.116248"/>
     <use style="fill:#ff0000;stroke:#ff0000;" x="342.426485" xlink:href="#m26c9d12523" y="242.116264"/>
     <use style="fill:#ff0000;stroke:#ff0000;" x="343.624767" xlink:href="#m26c9d12523" y="242.116292"/>
     <use style="fill:#ff0000;stroke:#ff0000;" x="344.823049" xlink:href="#m26c9d12523" y="242.116298"/>
     <use style="fill:#ff0000;stroke:#ff0000;" x="346.021331" xlink:href="#m26c9d12523" y="242.116295"/>
     <use style="fill:#ff0000;stroke:#ff0000;" x="347.219613" xlink:href="#m26c9d12523" y="242.116248"/>
     <use style="fill:#ff0000;stroke:#ff0000;" x="348.417895" xlink:href="#m26c9d12523" y="242.116332"/>
     <use style="fill:#ff0000;stroke:#ff0000;" x="349.616178" xlink:href="#m26c9d12523" y="242.116329"/>
     <use style="fill:#ff0000;stroke:#ff0000;" x="350.81446" xlink:href="#m26c9d12523" y="242.11632"/>
     <use style="fill:#ff0000;stroke:#ff0000;" x="352.012742" xlink:href="#m26c9d12523" y="242.11632"/>
     <use style="fill:#ff0000;stroke:#ff0000;" x="353.211024" xlink:href="#m26c9d12523" y="242.116308"/>
     <use style="fill:#ff0000;stroke:#ff0000;" x="354.409306" xlink:href="#m26c9d12523" y="242.116248"/>
     <use style="fill:#ff0000;stroke:#ff0000;" x="355.607588" xlink:href="#m26c9d12523" y="242.116301"/>
     <use style="fill:#ff0000;stroke:#ff0000;" x="356.80587" xlink:href="#m26c9d12523" y="242.116304"/>
     <use style="fill:#ff0000;stroke:#ff0000;" x="358.004152" xlink:href="#m26c9d12523" y="242.116332"/>
     <use style="fill:#ff0000;stroke:#ff0000;" x="359.202434" xlink:href="#m26c9d12523" y="242.116332"/>
     <use style="fill:#ff0000;stroke:#ff0000;" x="360.400716" xlink:href="#m26c9d12523" y="242.116339"/>
     <use style="fill:#ff0000;stroke:#ff0000;" x="361.598998" xlink:href="#m26c9d12523" y="242.116357"/>
     <use style="fill:#ff0000;stroke:#ff0000;" x="362.79728" xlink:href="#m26c9d12523" y="242.116345"/>
     <use style="fill:#ff0000;stroke:#ff0000;" x="363.995562" xlink:href="#m26c9d12523" y="242.116351"/>
     <use style="fill:#ff0000;stroke:#ff0000;" x="365.193844" xlink:href="#m26c9d12523" y="242.116357"/>
     <use style="fill:#ff0000;stroke:#ff0000;" x="366.392126" xlink:href="#m26c9d12523" y="242.116351"/>
     <use style="fill:#ff0000;stroke:#ff0000;" x="367.590408" xlink:href="#m26c9d12523" y="242.116354"/>
     <use style="fill:#ff0000;stroke:#ff0000;" x="368.78869" xlink:href="#m26c9d12523" y="242.116332"/>
     <use style="fill:#ff0000;stroke:#ff0000;" x="369.986972" xlink:href="#m26c9d12523" y="242.116361"/>
     <use style="fill:#ff0000;stroke:#ff0000;" x="371.185254" xlink:href="#m26c9d12523" y="242.116364"/>
     <use style="fill:#ff0000;stroke:#ff0000;" x="372.383536" xlink:href="#m26c9d12523" y="242.116364"/>
     <use style="fill:#ff0000;stroke:#ff0000;" x="373.581818" xlink:href="#m26c9d12523" y="242.115487"/>
    </g>
   </g>
   <g id="patch_3">
    <path d="M 54 252 
L 54 34.56 
" style="fill:none;stroke:#000000;stroke-linecap:square;stroke-linejoin:miter;stroke-width:0.8;"/>
   </g>
   <g id="patch_4">
    <path d="M 388.8 252 
L 388.8 34.56 
" style="fill:none;stroke:#000000;stroke-linecap:square;stroke-linejoin:miter;stroke-width:0.8;"/>
   </g>
   <g id="patch_5">
    <path d="M 54 252 
L 388.8 252 
" style="fill:none;stroke:#000000;stroke-linecap:square;stroke-linejoin:miter;stroke-width:0.8;"/>
   </g>
   <g id="patch_6">
    <path d="M 54 34.56 
L 388.8 34.56 
" style="fill:none;stroke:#000000;stroke-linecap:square;stroke-linejoin:miter;stroke-width:0.8;"/>
   </g>
   <g id="text_17">
    <!-- Radardata transformed to png values -->
    <defs>
     <path d="M 44.390625 34.1875 
Q 47.5625 33.109375 50.5625 29.59375 
Q 53.5625 26.078125 56.59375 19.921875 
L 66.609375 0 
L 56 0 
L 46.6875 18.703125 
Q 43.0625 26.03125 39.671875 28.421875 
Q 36.28125 30.8125 30.421875 30.8125 
L 19.671875 30.8125 
L 19.671875 0 
L 9.8125 0 
L 9.8125 72.90625 
L 32.078125 72.90625 
Q 44.578125 72.90625 50.734375 67.671875 
Q 56.890625 62.453125 56.890625 51.90625 
Q 56.890625 45.015625 53.6875 40.46875 
Q 50.484375 35.9375 44.390625 34.1875 
z
M 19.671875 64.796875 
L 19.671875 38.921875 
L 32.078125 38.921875 
Q 39.203125 38.921875 42.84375 42.21875 
Q 46.484375 45.515625 46.484375 51.90625 
Q 46.484375 58.296875 42.84375 61.546875 
Q 39.203125 64.796875 32.078125 64.796875 
z
" id="DejaVuSans-82"/>
     <path d="M 45.40625 46.390625 
L 45.40625 75.984375 
L 54.390625 75.984375 
L 54.390625 0 
L 45.40625 0 
L 45.40625 8.203125 
Q 42.578125 3.328125 38.25 0.953125 
Q 33.9375 -1.421875 27.875 -1.421875 
Q 17.96875 -1.421875 11.734375 6.484375 
Q 5.515625 14.40625 5.515625 27.296875 
Q 5.515625 40.1875 11.734375 48.09375 
Q 17.96875 56 27.875 56 
Q 33.9375 56 38.25 53.625 
Q 42.578125 51.265625 45.40625 46.390625 
z
M 14.796875 27.296875 
Q 14.796875 17.390625 18.875 11.75 
Q 22.953125 6.109375 30.078125 6.109375 
Q 37.203125 6.109375 41.296875 11.75 
Q 45.40625 17.390625 45.40625 27.296875 
Q 45.40625 37.203125 41.296875 42.84375 
Q 37.203125 48.484375 30.078125 48.484375 
Q 22.953125 48.484375 18.875 42.84375 
Q 14.796875 37.203125 14.796875 27.296875 
z
" id="DejaVuSans-100"/>
     <path d="M 45.40625 27.984375 
Q 45.40625 37.75 41.375 43.109375 
Q 37.359375 48.484375 30.078125 48.484375 
Q 22.859375 48.484375 18.828125 43.109375 
Q 14.796875 37.75 14.796875 27.984375 
Q 14.796875 18.265625 18.828125 12.890625 
Q 22.859375 7.515625 30.078125 7.515625 
Q 37.359375 7.515625 41.375 12.890625 
Q 45.40625 18.265625 45.40625 27.984375 
z
M 54.390625 6.78125 
Q 54.390625 -7.171875 48.1875 -13.984375 
Q 42 -20.796875 29.203125 -20.796875 
Q 24.46875 -20.796875 20.265625 -20.09375 
Q 16.0625 -19.390625 12.109375 -17.921875 
L 12.109375 -9.1875 
Q 16.0625 -11.328125 19.921875 -12.34375 
Q 23.78125 -13.375 27.78125 -13.375 
Q 36.625 -13.375 41.015625 -8.765625 
Q 45.40625 -4.15625 45.40625 5.171875 
L 45.40625 9.625 
Q 42.625 4.78125 38.28125 2.390625 
Q 33.9375 0 27.875 0 
Q 17.828125 0 11.671875 7.65625 
Q 5.515625 15.328125 5.515625 27.984375 
Q 5.515625 40.671875 11.671875 48.328125 
Q 17.828125 56 27.875 56 
Q 33.9375 56 38.28125 53.609375 
Q 42.625 51.21875 45.40625 46.390625 
L 45.40625 54.6875 
L 54.390625 54.6875 
z
" id="DejaVuSans-103"/>
     <path d="M 2.984375 54.6875 
L 12.5 54.6875 
L 29.59375 8.796875 
L 46.6875 54.6875 
L 56.203125 54.6875 
L 35.6875 0 
L 23.484375 0 
z
" id="DejaVuSans-118"/>
    </defs>
    <g transform="translate(108.484688 28.56)scale(0.12 -0.12)">
     <use xlink:href="#DejaVuSans-82"/>
     <use x="69.451172" xlink:href="#DejaVuSans-97"/>
     <use x="130.730469" xlink:href="#DejaVuSans-100"/>
     <use x="194.207031" xlink:href="#DejaVuSans-97"/>
     <use x="255.486328" xlink:href="#DejaVuSans-114"/>
     <use x="296.583984" xlink:href="#DejaVuSans-100"/>
     <use x="360.060547" xlink:href="#DejaVuSans-97"/>
     <use x="421.339844" xlink:href="#DejaVuSans-116"/>
     <use x="460.548828" xlink:href="#DejaVuSans-97"/>
     <use x="521.828125" xlink:href="#DejaVuSans-32"/>
     <use x="553.615234" xlink:href="#DejaVuSans-116"/>
     <use x="592.824219" xlink:href="#DejaVuSans-114"/>
     <use x="633.9375" xlink:href="#DejaVuSans-97"/>
     <use x="695.216797" xlink:href="#DejaVuSans-110"/>
     <use x="758.595703" xlink:href="#DejaVuSans-115"/>
     <use x="810.695312" xlink:href="#DejaVuSans-102"/>
     <use x="845.900391" xlink:href="#DejaVuSans-111"/>
     <use x="907.082031" xlink:href="#DejaVuSans-114"/>
     <use x="948.179688" xlink:href="#DejaVuSans-109"/>
     <use x="1045.591797" xlink:href="#DejaVuSans-101"/>
     <use x="1107.115234" xlink:href="#DejaVuSans-100"/>
     <use x="1170.591797" xlink:href="#DejaVuSans-32"/>
     <use x="1202.378906" xlink:href="#DejaVuSans-116"/>
     <use x="1241.587891" xlink:href="#DejaVuSans-111"/>
     <use x="1302.769531" xlink:href="#DejaVuSans-32"/>
     <use x="1334.556641" xlink:href="#DejaVuSans-112"/>
     <use x="1398.033203" xlink:href="#DejaVuSans-110"/>
     <use x="1461.412109" xlink:href="#DejaVuSans-103"/>
     <use x="1524.888672" xlink:href="#DejaVuSans-32"/>
     <use x="1556.675781" xlink:href="#DejaVuSans-118"/>
     <use x="1615.855469" xlink:href="#DejaVuSans-97"/>
     <use x="1677.134766" xlink:href="#DejaVuSans-108"/>
     <use x="1704.917969" xlink:href="#DejaVuSans-117"/>
     <use x="1768.296875" xlink:href="#DejaVuSans-101"/>
     <use x="1829.820312" xlink:href="#DejaVuSans-115"/>
    </g>
   </g>
   <g id="legend_1">
    <g id="patch_7">
     <path d="M 267.107813 57.51625 
L 381.8 57.51625 
Q 383.8 57.51625 383.8 55.51625 
L 383.8 41.56 
Q 383.8 39.56 381.8 39.56 
L 267.107813 39.56 
Q 265.107813 39.56 265.107813 41.56 
L 265.107813 55.51625 
Q 265.107813 57.51625 267.107813 57.51625 
z
" style="fill:#ffffff;opacity:0.8;stroke:#cccccc;stroke-linejoin:miter;"/>
    </g>
    <g id="line2d_15"/>
    <g id="line2d_16">
     <g>
      <use style="fill:#ff0000;stroke:#ff0000;" x="279.107813" xlink:href="#m26c9d12523" y="47.658438"/>
     </g>
    </g>
    <g id="text_18">
     <!-- scaled_png_final -->
     <defs>
      <path d="M 48.78125 52.59375 
L 48.78125 44.1875 
Q 44.96875 46.296875 41.140625 47.34375 
Q 37.3125 48.390625 33.40625 48.390625 
Q 24.65625 48.390625 19.8125 42.84375 
Q 14.984375 37.3125 14.984375 27.296875 
Q 14.984375 17.28125 19.8125 11.734375 
Q 24.65625 6.203125 33.40625 6.203125 
Q 37.3125 6.203125 41.140625 7.25 
Q 44.96875 8.296875 48.78125 10.40625 
L 48.78125 2.09375 
Q 45.015625 0.34375 40.984375 -0.53125 
Q 36.96875 -1.421875 32.421875 -1.421875 
Q 20.0625 -1.421875 12.78125 6.34375 
Q 5.515625 14.109375 5.515625 27.296875 
Q 5.515625 40.671875 12.859375 48.328125 
Q 20.21875 56 33.015625 56 
Q 37.15625 56 41.109375 55.140625 
Q 45.0625 54.296875 48.78125 52.59375 
z
" id="DejaVuSans-99"/>
      <path d="M 50.984375 -16.609375 
L 50.984375 -23.578125 
L -0.984375 -23.578125 
L -0.984375 -16.609375 
z
" id="DejaVuSans-95"/>
     </defs>
     <g transform="translate(297.107813 51.158438)scale(0.1 -0.1)">
      <use xlink:href="#DejaVuSans-115"/>
      <use x="52.099609" xlink:href="#DejaVuSans-99"/>
      <use x="107.080078" xlink:href="#DejaVuSans-97"/>
      <use x="168.359375" xlink:href="#DejaVuSans-108"/>
      <use x="196.142578" xlink:href="#DejaVuSans-101"/>
      <use x="257.666016" xlink:href="#DejaVuSans-100"/>
      <use x="321.142578" xlink:href="#DejaVuSans-95"/>
      <use x="371.142578" xlink:href="#DejaVuSans-112"/>
      <use x="434.619141" xlink:href="#DejaVuSans-110"/>
      <use x="497.998047" xlink:href="#DejaVuSans-103"/>
      <use x="561.474609" xlink:href="#DejaVuSans-95"/>
      <use x="611.474609" xlink:href="#DejaVuSans-102"/>
      <use x="646.679688" xlink:href="#DejaVuSans-105"/>
      <use x="674.462891" xlink:href="#DejaVuSans-110"/>
      <use x="737.841797" xlink:href="#DejaVuSans-97"/>
      <use x="799.121094" xlink:href="#DejaVuSans-108"/>
     </g>
    </g>
   </g>
  </g>
 </g>
 <defs>
  <clipPath id="p9022feedbe">
   <rect height="217.44" width="334.8" x="54" y="34.56"/>
  </clipPath>
 </defs>
</svg>
