<?xml version="1.0" encoding="iso-8859-1"?>
<!-- Generator: Adobe Illustrator 19.0.0, SVG Export Plug-In . SVG Version: 6.00 Build 0)  -->
<svg version="1.1" id="Layer_1" xmlns="http://www.w3.org/2000/svg" xmlns:xlink="http://www.w3.org/1999/xlink" x="0px" y="0px"
	 viewBox="0 0 473.931 473.931" style="enable-background:new 0 0 473.931 473.931;" xml:space="preserve">
<circle style="fill:#9CBDBF;" cx="236.966" cy="236.966" r="236.966"/>
<g>
	<path style="fill:#FFFFFF;" d="M280.344,197.718c0,0-45.275,17.059-49.41,21.186c-7.798,7.805-7.798,20.441-0.007,28.232
		c7.813,7.805,20.449,7.805,28.247,0C263.3,243.012,280.344,197.718,280.344,197.718z"/>
	<path style="fill:#FFFFFF;" d="M138.995,338.266c0,0-45.275,17.059-49.402,21.178c-7.813,7.805-7.813,20.434-0.015,28.239
		c7.813,7.798,20.441,7.798,28.254,0C121.963,383.557,138.995,338.266,138.995,338.266z"/>
	<path style="fill:#FFFFFF;" d="M419.511,286.656c0,0-45.283,17.051-49.41,21.178c-7.805,7.798-7.805,20.434-0.007,28.232
		c7.805,7.798,20.449,7.798,28.247,0C402.46,331.939,419.511,286.656,419.511,286.656z"/>
	<path style="fill:#FFFFFF;" d="M423.53,132.761c0,0-45.283,17.051-49.417,21.178c-7.79,7.805-7.79,20.434-0.007,28.239
		c7.82,7.798,20.441,7.798,28.247,0C406.482,178.052,423.53,132.761,423.53,132.761z"/>
	<path style="fill:#FFFFFF;" d="M330.446,51.767c0,0-45.275,17.059-49.41,21.186c-7.798,7.805-7.798,20.441-0.008,28.232
		c7.813,7.798,20.449,7.798,28.239,0C313.414,97.054,330.446,51.767,330.446,51.767z"/>
	<path style="fill:#FFFFFF;" d="M143.504,203.668c0,0-45.29,17.059-49.425,21.186c-7.79,7.805-7.79,20.426-0.007,28.232
		c7.813,7.805,20.449,7.805,28.247,0C126.449,248.954,143.504,203.668,143.504,203.668z"/>
	<path style="fill:#FFFFFF;" d="M284.587,330.397c0,0-45.275,17.059-49.402,21.186c-7.805,7.798-7.805,20.434-0.015,28.232
		c7.813,7.798,20.441,7.798,28.254,0C267.555,375.684,284.587,330.397,284.587,330.397z"/>
	<path style="fill:#FFFFFF;" d="M163.025,77.761c0,0-45.275,17.059-49.402,21.186c-7.805,7.798-7.805,20.434-0.015,28.232
		c7.813,7.798,20.441,7.798,28.254,0C145.989,123.052,163.025,77.761,163.025,77.761z"/>
</g>
<g>
</g>
<g>
</g>
<g>
</g>
<g>
</g>
<g>
</g>
<g>
</g>
<g>
</g>
<g>
</g>
<g>
</g>
<g>
</g>
<g>
</g>
<g>
</g>
<g>
</g>
<g>
</g>
<g>
</g>
</svg>
